# xmcd
#
# Track frame offsets: 
#        150
#        14815
#        29290
#        43952
#        56402
#        66827
#        86852
#        110072
#        122565
#        138227
#        149832
#        173252
#        192115
#        214540
#        226875
#        236395
#        262782
#
# Disc length: 3797 seconds
#
# Revision: 5
# Processed by: cddbd v1.5.2PL0 Copyright (c) Steve Scherf et al.
# Submitted via: ExactAudioCopy v0.99pb5
#
DISCID=ee0ed311
DTITLE=Saffire - The Uppity Blues Women - Broadcasting
DYEAR=1992
DGENRE=Blues
TTITLE0=One Hour Mama
TTITLE1=Dump That Chump
TTITLE2=OBG Why Me Blues
TTITLE3=Mind Your Own Business
TTITLE4=Evil Hearted Me
TTITLE5=If It Had Been a Dog ...
TTITLE6=Seemed Like Such a Good Idea At the Time
TTITLE7=Ragtime Rag
TTITLE8=Miz Thang
TTITLE9=Is You Is or Is You Ain't My Baby?
TTITLE10=Twisted Mind Blues
TTITLE11=Dr. Blues
TTITLE12=Nobody's Fool
TTITLE13=Don't Treat Your Man Like a Dog
TTITLE14=You'd Better Fly Right
TTITLE15=It's Alright For a Man To Cry
TTITLE16=Shake the Dew Off the Lily
EXTD=LABEL =Alligator Records and Artist Mgmt., Inc.\nID =ALCD4811\nUP
EXTD=C =014551-4811-26\nCOPYRIGHT =1992
EXTT0=
EXTT1=
EXTT2=
EXTT3=
EXTT4=
EXTT5=
EXTT6=
EXTT7=
EXTT8=
EXTT9=
EXTT10=
EXTT11=
EXTT12=
EXTT13=
EXTT14=
EXTT15=
EXTT16=
PLAYORDER=
